# AST/ASF file generated using VICON BodyLanguage
# -----------------------------------------------
:version 1.10
:name VICON
:units
  mass 1.0
  length 0.45
  angle deg
:documentation
   .ast/.asf automatically generated from VICON data using
   VICON BodyBuilder and BodyLanguage model FoxedUp or BRILLIANT.MOD
:root
   order TX TY TZ RX RY RZ
   axis XYZ
   position 0 0 0  
   orientation 0 0 0 
:bonedata
  begin
     id 1 
     name lhipjoint
     direction 0.682418 -0.694059 0.22932 
     length 2.25561 
     axis 0 0 0  XYZ
  end
  begin
     id 2 
     name lfemur
     direction 0.34202 -0.939693 0  
     length 6.96448  
     axis 0 0 20  XYZ
    dof rx ry rz
    limits (-160.0 20.0)
           (-70.0 70.0)
           (-60.0 70.0)
  end
  begin
     id 3 
     name ltibia
     direction 0.34202 -0.939693 0   
     length 6.88553   
     axis 0 0 20   XYZ
    dof rx
    limits (-10.0 170.0)
  end
  begin
     id 4 
     name lfoot
     direction 0.0723587 -0.198804 0.977364   
     length 1.88518   
     axis -90 7.62852e-016 20   XYZ
    dof rx rz
    limits (-45.0 90.0)
           (-70.0 20.0)
  end
  begin
     id 5 
     name ltoes
     direction 1.53558e-011 -4.21962e-011 1   
     length 0.952124   
     axis -90 7.62852e-016 20   XYZ
    dof rx
    limits (-90.0 20.0)
  end
  begin
     id 6 
     name rhipjoint
     direction -0.657603 -0.71533 0.236348   
     length 2.18854  
     axis 0 0 0  XYZ 
  end
  begin
     id 7 
     name rfemur
     direction -0.34202 -0.939693 0   
     length 6.86686   
     axis 0 0 -20   XYZ
    dof rx ry rz
    limits (-160.0 20.0)
           (-70.0 70.0)
           (-70.0 60.0)
  end
  begin
     id 8 
     name rtibia
     direction -0.34202 -0.939693 0   
     length 6.59503   
     axis 0 0 -20   XYZ
    dof rx
    limits (-10.0 170.0)
 end
 begin
     id 9 
     name rfoot
     direction -0.101977 -0.280179 0.954516   
     length 1.93723  
     axis -90 -7.62852e-016 -20   XYZ
    dof rx rz
    limits (-45.0 90.0)
           (-20.0 70.0)
  end
  begin
     id 10 
     name rtoes
     direction -1.53564e-011 -4.21897e-011 1   
     length 0.970315   
     axis -90 -7.62852e-016 -20   XYZ
    dof rx
    limits (-90.0 20.0)
  end
  begin
     id 11 
     name lowerback
     direction -0.0339559 0.999421 -0.00235966   
     length 1.88543   
     axis 0 0 0   XYZ
    dof rx ry rz
    limits (-20.0 45.0)
           (-30.0 30.0)
           (-30.0 30.0)
  end
  begin
     id 12 
     name upperback
     direction 0.00401003 0.999739 0.0224689   
     length 1.8856   
     axis 0 0 0   XYZ
    dof rx ry rz
    limits (-20.0 45.0)
           (-30.0 30.0)
           (-30.0 30.0)
  end
  begin
     id 13 
     name thorax
     direction 0.0198619 0.999546 0.0226536   
     length 1.88352   
     axis 0 0 0   XYZ
    dof rx ry rz
    limits (-20.0 45.0)
           (-30.0 30.0)
           (-30.0 30.0)
  end
  begin
     id 14 
     name lowerneck
     direction -0.0461848 0.998632 0.0245198   
     length 1.34895   
     axis 0 0 0   XYZ
    dof rx ry rz
    limits (-20.0 45.0)
           (-30.0 30.0)
           (-30.0 30.0)
  end
  begin
     id 15 
     name upperneck
     direction -0.0180627 0.994724 -0.100984   
     length 1.35214   
     axis 0 0 0   XYZ
    dof rx ry rz
    limits (-20.0 45.0)
           (-30.0 30.0)
           (-30.0 30.0)
  end
  begin
     id 16
     name head
     direction -0.00374772 0.999293 -0.037403  
     length 1.3568  
     axis 0 0 0   XYZ
    dof rx ry rz
    limits (-20.0 45.0)
           (-30.0 30.0)
           (-30.0 30.0)
  end
  begin
     id 17 
     name lclavicle
     direction 0.971773 0.191119 0.138311  
     length 2.84954  
     axis 0 0 0   XYZ
    dof ry rz
    limits (-20.0 10.0)
           (0.0 20.0)
  end
  begin
     id 18 
     name lhumerus
     direction 1 -4.4897e-011 -2.43761e-027   
     length 4.40919   
     axis 180 -30 -90   XYZ
    dof rx ry rz
    limits (-60.0 90.0)
           (-90.0 90.0)
           (-90.0 90.0)
  end
  begin
     id 19
     name lradius
     direction 1 -4.4896e-011 -9.1621e-027   
     length 3.03857   
     axis 180 -30 -90   XYZ
    dof rx
    limits (-10.0 170.0)
  end
  begin
     id 20
     name lwrist
     direction 1 -4.4896e-011 -1.41363e-026   
     length 1.51928   
     axis 1.07133e-014 90 90   XYZ
    dof ry
    limits (-180.0 0.0)
 end
  begin
     id 21 
     name lhand
     direction 1 -4.48978e-011 -2.82725e-026   
     length 0.523208   
     axis 1.80403e-014 90 90   XYZ
    dof rx rz
    limits (-90.0 90.0)
           (-45.0 45.0)
  end
  begin
     id 22 
     name lfingers
     direction 1 -4.48977e-011 -5.6545e-026   
     length 0.421824   
     axis 3.60806e-014 90 90   XYZ
    dof rx
    limits (0.0 90.0)
  end
  begin
     id 23
     name lthumb
     direction 0.707107 -6.34962e-011 0.707107   
     length 0.605657   
     axis -90 45 2.85299e-015   XYZ
    dof rx rz
    limits (-45.0 45.0)
           (-45.0 45.0)
  end
  begin
     id 24 
     name rclavicle
     direction -0.957247 0.24311 0.156766   
     length 3.12406  
     axis 0 0 0   XYZ 
    dof ry rz
    limits (-10.0 20.0)
           (-20.0 0.0)
  end
  begin
     id 25 
     name rhumerus
     direction -1 -4.48964e-011 -1.70632e-027  
     length 4.61969   
     axis 180 30 90   XYZ
    dof rx ry rz
    limits (-90.0 60.0)
           (-90.0 90.0)
           (-90.0 90.0)
  end
  begin
     id 26 
     name rradius
     direction -1 -4.48966e-011 -6.60395e-027   
     length 3.09382   
     axis 180 30 90   XYZ
    dof rx
    limits (-10.0 170.0)
  end
  begin
     id 27 
     name rwrist
     direction -1 -4.48963e-011 -1.41363e-026   
     length 1.54691   
     axis 1.07133e-014 -90 -90   XYZ
    dof ry
    limits (-180.0 0.0)
  end
  begin
     id 28
     name rhand
     direction -1 -4.49013e-011 -2.82725e-026   
     length 0.500896   
     axis 1.80403e-014 -90 -90   XYZ
    dof rx rz
    limits (-90.0 90.0)
           (-45.0 45.0)
  end
  begin
     id 29
     name rfingers
     direction -1 -4.48902e-011 -5.6545e-026   
     length 0.403835   
     axis 3.60806e-014 -90 -90   XYZ
    dof rx
    limits (0.0 90.0)
  end
  begin
     id 30
     name rthumb
     direction -0.707107 -6.34953e-011 0.707107   
     length 0.579829   
     axis -90 -45 -2.85299e-015   XYZ
    dof rx rz
    limits (-45.0 45.0)
           (-45.0 45.0)
  end
:hierarchy
  begin
    root lhipjoint rhipjoint lowerback
    lhipjoint lfemur
    lfemur ltibia
    ltibia lfoot
    lfoot ltoes
    rhipjoint rfemur
    rfemur rtibia
    rtibia rfoot
    rfoot rtoes
    lowerback upperback
    upperback thorax
    thorax lowerneck lclavicle rclavicle
    lowerneck upperneck
    upperneck head
    lclavicle lhumerus
    lhumerus lradius
    lradius lwrist
    lwrist lhand lthumb
    lhand lfingers
    rclavicle rhumerus
    rhumerus rradius
    rradius rwrist
    rwrist rhand rthumb
    rhand rfingers
  end

#!OML:ASF E:\madness\Project 1\Capture day 1\Session 1\Female1.ASF
:FULLY-SPECIFIED
:DEGREES
705
root 8.05016 16.0064 2.63698 0.47798 -78.2145 11.5052
lowerback 0.534574 1.15266 -0.987189
upperback -3.21225 1.48668 -0.0581878
thorax -3.62476 0.758024 0.438577
lowerneck -1.84755 6.07581 4.24463
upperneck 31.6825 8.89472 -6.62934
head 11.0134 3.44514 -2.36086
rclavicle -2.53947e-014 -4.37326e-015
rhumerus -69.3985 -24.1846 -22.0444
rradius 57.816
rwrist -3.68864
rhand -14.8777 -45.5842
rfingers 7.12502
rthumb 11.2827 -75.2608
lclavicle -2.53947e-014 -4.37326e-015
lhumerus -55.5785 8.61554 39.6858
lradius 105.777
lwrist -1.59791
lhand -32.9237 -9.80634
lfingers 7.12502
lthumb -6.14058 20.0847
rfemur -24.9175 -1.8069 25.4062
rtibia 29.8984
rfoot -25.0672 -3.5511
rtoes 4.72321
lfemur -45.1924 -9.66863 -15.7492
ltibia 78.2909
lfoot -25.6504 -4.00037
ltoes 16.6746
706
root 8.01809 16.0211 2.6178 0.422299 -78.2318 11.4853
lowerback 0.429762 1.19899 -1.15147
upperback -3.06742 1.54955 -0.0345489
thorax -3.42186 0.794118 0.556705
lowerneck -1.64197 6.10315 4.43889
upperneck 31.3864 8.96702 -6.8426
head 10.8832 3.495 -2.46574
rclavicle -7.90169e-015 7.95139e-016
rhumerus -69.2287 -24.4876 -22.084
rradius 57.7162
rwrist -3.48383
rhand -14.2876 -43.9234
rfingers 7.12502
rthumb 11.8518 -73.568
lclavicle -7.90169e-015 7.95139e-016
lhumerus -55.7629 8.74212 39.3365
lradius 105.962
lwrist -1.47117
lhand -32.7832 -9.9946
lfingers 7.12502
lthumb -6.00488 19.9003
rfemur -24.4479 -1.65157 25.473
rtibia 29.4327
rfoot -25.1929 -3.8045
rtoes 4.31185
lfemur -46.1219 -9.85272 -15.5735
ltibia 78.1481
lfoot -24.7652 -4.5767
ltoes 20.9503
707
root 7.98581 16.0323 2.60142 0.23924 -78.2284 11.6383
lowerback 0.335709 1.29213 -1.26881
upperback -2.93399 1.67541 -0.0351598
thorax -3.23673 0.859552 0.621504
lowerneck -1.70439 6.12328 4.55917
upperneck 31.3534 9.01404 -6.93352
head 10.897 3.52389 -2.51166
rclavicle 1.84373e-014 -6.75868e-015
rhumerus -69.1187 -24.7592 -22.0157
rradius 57.5239
rwrist -3.34576
rhand -14.9438 -45.6684
rfingers 7.12502
rthumb 11.219 -75.3484
lclavicle 1.84373e-014 -6.75868e-015
lhumerus -55.8036 8.87199 39.124
lradius 106.125
lwrist -1.39467
lhand -32.717 -9.48313
lfingers 7.12502
lthumb -5.94098 20.4136
rfemur -24.0416 -1.48502 25.4797
rtibia 28.9868
rfoot -25.1957 -3.97342
rtoes 4.66773
lfemur -47.0722 -10.1254 -15.4246
ltibia 77.8975
lfoot -24.9541 -4.31735
ltoes 18.8702
708
root 7.95741 16.0386 2.58705 0.245597 -78.1826 11.6737
lowerback 0.285711 1.36117 -1.30236
upperback -2.88909 1.76732 -0.0803609
thorax -3.1637 0.905357 0.592826
lowerneck -1.76777 6.1699 4.69889
upperneck 31.3119 9.10484 -7.05315
head 10.9138 3.5717 -2.56669
rclavicle -2.62893e-014 7.95139e-016
rhumerus -69.1776 -24.8276 -22.1022
rradius 57.5704
rwrist -3.29582
rhand -15.4498 -46.4631
rfingers 7.12502
rthumb 10.7309 -76.169
lclavicle -2.62893e-014 7.95139e-016
lhumerus -55.7877 9.03062 38.8208
lradius 106.142
lwrist -1.3437
lhand -32.1686 -9.45451
lfingers 7.12502
lthumb -5.41149 20.4564
rfemur -23.7836 -1.39977 25.5191
rtibia 28.6189
rfoot -25.122 -4.08064
rtoes 5.05195
lfemur -48.0985 -10.4259 -15.2557
ltibia 77.6053
lfoot -24.8493 -4.23817
ltoes 18.9045
709
root 7.92768 16.0465 2.5714 0.141082 -78.2319 11.8145
lowerback 0.223229 1.35456 -1.43952
upperback -2.88977 1.75602 -0.0969458
thorax -3.13279 0.902794 0.654421
lowerneck -1.57954 6.2662 4.69347
upperneck 31.0568 9.2692 -7.16638
head 10.796 3.64759 -2.5911
rclavicle 2.01766e-014 1.35174e-014
rhumerus -68.9586 -24.741 -22.4101
rradius 57.5011
rwrist -3.32121
rhand -15.5 -51.0452
rfingers 7.12502
rthumb 10.6825 -80.7536
lclavicle 2.01766e-014 1.35174e-014
lhumerus -56.0708 9.31525 38.4062
lradius 106.198
lwrist -1.30731
lhand -31.8911 -9.43503
lfingers 7.12502
lthumb -5.14355 20.4825
rfemur -23.5592 -1.29673 25.5657
rtibia 28.3344
rfoot -25.0866 -4.22101
rtoes 4.9616
lfemur -49.0363 -10.6056 -15.1082
ltibia 77.2108
lfoot -24.5439 -4.40267
ltoes 20.8364
710
root 7.89635 16.0553 2.55724 -0.115317 -78.2969 12.0212
lowerback 0.225773 1.37869 -1.54773
upperback -2.86165 1.78621 -0.116606
thorax -3.10879 0.920258 0.694156
lowerneck -1.4903 6.3303 4.56106
upperneck 30.9386 9.36771 -7.14517
head 10.7322 3.68625 -2.55106
rclavicle 7.41467e-014 7.95139e-016
rhumerus -68.7351 -24.705 -22.5768
rradius 57.2306
rwrist -3.3683
rhand -12.9242 -41.9043
rfingers 7.12502
rthumb 13.1663 -71.4686
lclavicle 7.41467e-014 7.95139e-016
lhumerus -56.2858 9.53376 38.0218
lradius 106.284
lwrist -1.26438
lhand -32.4778 -8.09502
lfingers 7.12502
lthumb -5.71008 21.808
rfemur -23.2282 -1.21573 25.5842
rtibia 28.0789
rfoot -25.062 -4.24288
rtoes 5.36562
lfemur -49.8507 -10.8415 -14.976
ltibia 76.6593
lfoot -24.3016 -4.01954
ltoes 21.3504
711
root 7.86757 16.0576 2.54494 -0.356561 -78.2786 12.1438
lowerback 0.309191 1.48833 -1.54795
upperback -2.75183 1.93254 -0.174876
thorax -3.04394 0.99231 0.629458
lowerneck -1.78465 6.31023 4.30447
upperneck 31.0506 9.30147 -6.85088
head 10.7981 3.65118 -2.39837
rclavicle -4.07509e-014 6.75868e-015
rhumerus -68.894 -24.9135 -22.4903
rradius 57.1969
rwrist -3.39354
rhand -12.8501 -42.4387
rfingers 7.12502
rthumb 13.2377 -71.9983
lclavicle -4.07509e-014 6.75868e-015
lhumerus -56.2012 9.51389 37.8272
lradius 106.416
lwrist -1.22706
lhand -32.3319 -9.48505
lfingers 7.12502
lthumb -5.5692 20.4218
rfemur -22.8457 -1.17626 25.597
rtibia 27.8121
rfoot -24.9753 -4.19164
rtoes 6.10339
lfemur -50.5998 -11.2009 -14.8496
ltibia 76.0376
lfoot -24.2841 -3.07779
ltoes 19.601
712
root 7.83965 16.0668 2.5323 -0.885657 -78.2919 12.572
lowerback 0.434024 1.5985 -1.62238
upperback -2.6639 2.07682 -0.23167
thorax -3.02762 1.06545 0.606033
lowerneck -2.1096 6.30977 4.10792
upperneck 31.1933 9.28513 -6.65397
head 10.8947 3.63363 -2.28562
rclavicle -1.50579e-014 -7.15625e-015
rhumerus -69.0731 -25.086 -22.4404
rradius 57.2806
rwrist -3.45026
rhand -11.9806 -42.1463
rfingers 7.12502
rthumb 14.0757 -71.6496
lclavicle -1.50579e-014 -7.15625e-015
lhumerus -56.2171 9.4587 37.7538
lradius 106.594
lwrist -1.18173
lhand -32.5559 -9.85845
lfingers 7.12502
lthumb -5.78549 20.0426
rfemur -22.5101 -1.21845 25.5733
rtibia 27.5705
rfoot -24.9335 -4.15212
rtoes 6.161
lfemur -51.2725 -11.4783 -14.8296
ltibia 75.3128
lfoot -24.1681 -2.66148
ltoes 19.3026
713
root 7.81237 16.0785 2.51997 -1.33944 -78.3041 13.0026
lowerback 0.597426 1.64307 -1.7036
upperback -2.74642 2.12773 -0.301296
thorax -3.20675 1.09301 0.571498
lowerneck -2.08981 6.38093 4.11137
upperneck 31.2929 9.39242 -6.66127
head 10.9384 3.67837 -2.27947
rclavicle 1.66234e-014 2.38542e-015
rhumerus -69.1675 -25.0348 -22.4335
rradius 57.1224
rwrist -3.33496
rhand -14.4233 -45.6736
rfingers 7.12502
rthumb 11.7209 -75.3256
lclavicle 1.66234e-014 2.38542e-015
lhumerus -56.3594 9.48128 37.5202
lradius 106.603
lwrist -1.14872
lhand -32.6242 -9.94921
lfingers 7.12502
lthumb -5.85138 19.95
rfemur -22.285 -1.30458 25.5618
rtibia 27.3994
rfoot -24.9 -4.18432
rtoes 6.72556
lfemur -51.9848 -11.7389 -14.7943
ltibia 74.5178
lfoot -24.0371 -2.4182
ltoes 19.3166
714
root 7.78432 16.0822 2.50645 -1.71733 -78.2606 13.3659
lowerback 0.709776 1.63814 -1.79256
upperback -2.82421 2.11137 -0.413519
thorax -3.3494 1.08629 0.501484
lowerneck -1.61829 6.41937 4.41922
upperneck 31.0963 9.40899 -6.69998
head 10.7898 3.73284 -2.35698
rclavicle -5.09137e-014 5.56597e-015
rhumerus -69.1596 -25.0362 -22.5308
rradius 56.8596
rwrist -3.18865
rhand -8.93873 -33.3726
rfingers 7.12502
rthumb 17.0054 -62.6482
lclavicle -5.09137e-014 5.56597e-015
lhumerus -56.4796 9.5063 37.0881
lradius 106.522
lwrist -1.15828
lhand -32.6184 -9.91028
lfingers 7.12502
lthumb -5.84576 19.9891
rfemur -22.0626 -1.23948 25.5395
rtibia 27.1924
rfoot -24.7965 -4.45162
rtoes 7.24493
lfemur -52.687 -12.0508 -14.7233
ltibia 73.699
lfoot -24.118 -1.84504
ltoes 17.0349
